<svg xmlns="http://www.w3.org/2000/svg" width="21.298" height="21.563"><path fill="#B5BCBD" fill-rule="evenodd" d="M16.392 2.702 13.84 5.254C11.224 4.735.748 2.235.611 2.406c-.153.192-.207.324-.514.708 3.022 2.289 6.101 4.477 9.131 6.752l-3.855 3.855L0 14.056l4.723 2.739 2.651 4.635.333-5.355c1.261-1.25 2.531-2.492 3.798-3.736 2.3 3.06 4.51 6.171 6.822 9.224.384-.308.516-.361.708-.515.173-.138-2.407-10.937-2.87-13.343.869-.883 1.73-1.773 2.58-2.675 4.528-4.799 2.588-7.27-2.353-2.328z" clip-rule="evenodd"/></svg>